<?xml version="1.0" encoding="utf-8"?>
<!-- Generator: Adobe Illustrator 25.4.1, SVG Export Plug-In . SVG Version: 6.00 Build 0)  -->
<svg version="1.1" id="Layer_1" xmlns="http://www.w3.org/2000/svg" xmlns:xlink="http://www.w3.org/1999/xlink" x="0px" y="0px"
	 viewBox="0 0 900 649.01" style="enable-background:new 0 0 900 649.01;" xml:space="preserve">
<style type="text/css">
	.st0{fill:#396539;}
	.st1{fill:#458045;}
	.st2{fill:#156165;}
	.st3{fill:#157A80;}
	.st4{fill:#F2A900;}
	.st5{fill:#BB8405;}
	.st6{fill:#AD2A81;}
	.st7{fill:#872566;}
	.st8{fill:#1078CF;}
	.st9{fill:#161616;fill-opacity:0.3;}
</style>
<path class="st0" d="M225,432.51L450,216v433.01L225,432.51z"/>
<path class="st1" d="M675,432.51L450,649.01V216L675,432.51z"/>
<path class="st2" d="M0,216.51L225,0v433.01L0,216.51z"/>
<path class="st3" d="M450,216.51L225,433.01V0L450,216.51z"/>
<path class="st4" d="M450,216.51L675,0v433.01L450,216.51z"/>
<path class="st5" d="M900,216.51L675,433.01V0L900,216.51z"/>
<path class="st6" d="M675,432.51L900,216v433.01L675,432.51z"/>
<path class="st7" d="M900,648.51H675V432L900,648.51z"/>
<path class="st8" d="M225,432.51L0,216v433.01L225,432.51z"/>
<path class="st8" d="M0,648.51h225V432L0,648.51z"/>
<path class="st9" d="M0,648.51h225V432L0,648.51z"/>
</svg>
